<svg width="38" height="38" viewBox="0 0 38 38" fill="none" xmlns="http://www.w3.org/2000/svg">
<path d="M8.3125 17.8125H32.0625C32.3774 17.8125 32.6795 17.9376 32.9022 18.1603C33.1249 18.383 33.25 18.6851 33.25 19C33.25 19.3149 33.1249 19.617 32.9022 19.8397C32.6795 20.0624 32.3774 20.1875 32.0625 20.1875H8.3125C7.99756 20.1875 7.69551 20.0624 7.47281 19.8397C7.25011 19.617 7.125 19.3149 7.125 19C7.125 18.6851 7.25011 18.383 7.47281 18.1603C7.69551 17.9376 7.99756 17.8125 8.3125 17.8125Z" fill="white"/>
<path d="M8.80417 19L18.6533 28.8468C18.8763 29.0698 19.0015 29.3722 19.0015 29.6875C19.0015 30.0029 18.8763 30.3053 18.6533 30.5283C18.4303 30.7513 18.1279 30.8765 17.8125 30.8765C17.4972 30.8765 17.1948 30.7513 16.9718 30.5283L6.2843 19.8408C6.17371 19.7305 6.08597 19.5994 6.02611 19.4552C5.96624 19.3109 5.93542 19.1562 5.93542 19C5.93542 18.8438 5.96624 18.6892 6.02611 18.5449C6.08597 18.4006 6.17371 18.2696 6.2843 18.1593L16.9718 7.47178C17.1948 7.2488 17.4972 7.12354 17.8125 7.12354C18.1279 7.12354 18.4303 7.2488 18.6533 7.47178C18.8763 7.69477 19.0015 7.99719 19.0015 8.31254C19.0015 8.62788 18.8763 8.9303 18.6533 9.15329L8.80417 19Z" fill="white"/>
</svg>
